<svg width="201" height="39" viewBox="0 0 201 39" fill="none" xmlns="http://www.w3.org/2000/svg">
<path d="M2.81818 7.72727H6.18182L14.0909 27.0455H14.3636L22.2727 7.72727H25.6364V31H23V13.3182H22.7727L15.5 31H12.9545L5.68182 13.3182H5.45455V31H2.81818V7.72727ZM34.1051 7.72727V31H31.2869V7.72727H34.1051ZM46.9375 31H39.7557V7.72727H47.2557C49.5133 7.72727 51.4451 8.19318 53.0511 9.125C54.6572 10.0492 55.8883 11.3788 56.7443 13.1136C57.6004 14.8409 58.0284 16.9091 58.0284 19.3182C58.0284 21.7424 57.5966 23.8295 56.733 25.5795C55.8693 27.322 54.6117 28.6629 52.9602 29.6023C51.3087 30.5341 49.3011 31 46.9375 31ZM42.5739 28.5H46.7557C48.6799 28.5 50.2746 28.1288 51.5398 27.3864C52.8049 26.6439 53.7481 25.5871 54.3693 24.2159C54.9905 22.8447 55.3011 21.2121 55.3011 19.3182C55.3011 17.4394 54.9943 15.822 54.3807 14.4659C53.767 13.1023 52.8504 12.0568 51.6307 11.3295C50.411 10.5947 48.892 10.2273 47.0739 10.2273H42.5739V28.5ZM62.6165 31H59.6619L68.2074 7.72727H71.1165L79.6619 31H76.7074L69.7528 11.4091H69.571L62.6165 31ZM63.7074 21.9091H75.6165V24.4091H63.7074V21.9091Z" fill="#00A3D9"/>
<path d="M90.9091 31H84.0909V7.72727H91.3182C93.5379 7.72727 95.4356 8.18939 97.0114 9.11364C98.5947 10.0379 99.8068 11.3636 100.648 13.0909C101.489 14.8182 101.909 16.8902 101.909 19.3068C101.909 21.7462 101.477 23.8409 100.614 25.5909C99.7576 27.3333 98.5076 28.6705 96.8636 29.6023C95.2273 30.5341 93.2424 31 90.9091 31ZM86.2159 29.0909H90.7841C92.7841 29.0909 94.4583 28.697 95.8068 27.9091C97.1553 27.1212 98.1667 25.9962 98.8409 24.5341C99.5152 23.072 99.8523 21.3295 99.8523 19.3068C99.8447 17.2992 99.5114 15.572 98.8523 14.125C98.2008 12.678 97.2311 11.5682 95.9432 10.7955C94.6629 10.0227 93.0795 9.63636 91.1932 9.63636H86.2159V29.0909ZM109.185 7.72727V31H107.06V7.72727H109.185ZM131.474 15C131.262 14.2273 130.952 13.5038 130.543 12.8295C130.134 12.1477 129.626 11.553 129.02 11.0455C128.421 10.5303 127.728 10.1288 126.94 9.84091C126.16 9.55303 125.289 9.40909 124.327 9.40909C122.812 9.40909 121.455 9.80303 120.259 10.5909C119.062 11.3788 118.115 12.5152 117.418 14C116.728 15.4848 116.384 17.2727 116.384 19.3636C116.384 21.447 116.732 23.2311 117.429 24.7159C118.126 26.2008 119.08 27.3409 120.293 28.1364C121.512 28.9242 122.906 29.3182 124.474 29.3182C125.906 29.3182 127.171 29 128.27 28.3636C129.368 27.7273 130.224 26.8182 130.838 25.6364C131.459 24.4545 131.762 23.0492 131.747 21.4205L132.429 21.6364H124.974V19.7273H133.815V21.6364C133.815 23.6212 133.414 25.3371 132.611 26.7841C131.808 28.2311 130.705 29.3485 129.304 30.1364C127.902 30.9242 126.293 31.3182 124.474 31.3182C122.444 31.3182 120.668 30.8295 119.145 29.8523C117.622 28.8674 116.437 27.4811 115.588 25.6932C114.747 23.8977 114.327 21.7879 114.327 19.3636C114.327 17.5379 114.569 15.8902 115.054 14.4205C115.539 12.9508 116.224 11.6932 117.111 10.6477C118.005 9.60227 119.062 8.80303 120.281 8.25C121.501 7.68939 122.849 7.40909 124.327 7.40909C125.599 7.40909 126.762 7.60985 127.815 8.01136C128.876 8.41288 129.808 8.96591 130.611 9.67045C131.421 10.3674 132.084 11.1742 132.599 12.0909C133.122 13 133.474 13.9697 133.656 15H131.474ZM141.216 7.72727V31H139.091V7.72727H141.216ZM145.994 9.63636V7.72727H162.869V9.63636H155.494V31H153.369V9.63636H145.994ZM164.969 31H162.741L171.207 7.72727H173.48L181.946 31H179.719L172.423 10.4886H172.264L164.969 31ZM166.571 22.0795H178.116V23.9886H166.571V22.0795ZM185.935 31V7.72727H188.06V29.0909H199.151V31H185.935Z" fill="#434040"/>
</svg>
